<svg xmlns='http://www.w3.org/2000/svg' x="0px" y="0px" width="100%" height="100%" viewBox="0 0 438.8 269.7" xml:space="preserve"  fill='#264653' stroke-width= '2px' stroke='#264653' style="
    padding-left: 5px;
"><style type="text/css" >.st1{
	    fill: none;
    stroke: #264653;
    stroke-width: 10px;
}
</style><defs></defs><g><path d="M325.9,138.7c20.7,6,22.8,0.7,40.9,17c15.6,14.1,33.1,28.6,51.5,36.7c12,5.3,21,4.9,20.5,19.5c-0.3,8.7-10,22.2-19.9,18.5 c-6.5-2.5-13.2-4.5-20.2-6.9c-3.7,9.2-19.5,21.1-19.8,29.7c-0.5,15.8-3.7,18.7-19.2,15.1c-9.8-2.3-31.1-6.6-26-20.4 c1.5-4.1,2.7-8.3,4-12.4c-0.8-0.3-1.5-0.7-2.3-1c-1.6,2.9-3.7,5.6-4.7,8.7c-1.5,5,0,20-9.5,18.4c-5.9-1-11.8-2.3-17.3-4.5 c-7-2.9-13.7-6.8-20.3-10.6c-2.8-1.7,4.9-43.1,4.9-51.5c-5.5,6-11,3.9-16.7,2.6c-98.8-23.2-186.5-68-263.3-134.4 c-24-20.8,49.3-69.2,73-52.5c38.1,26.9,78,51,119.6,72.1c38.2,19.4,77.5,36,118.1,49.6C324.6,134,324.5,134.1,325.9,138.7z  M23.5,68.9c2,1.8,2.8,2.6,3.7,3.3c73.2,59.4,155.8,99.7,247.6,121c7.3,1.7,10.1,0.5,14.8-6.5c-19.2-12.6-38.3-25.3-57.5-37.9 c-11.7-7.7-23.4-15.4-35-23.2c-1.1-0.7-1.5-2.5-2.2-3.8c35.8-7.9,96.2,50.6,125.6,17.7c-9.3-7-22.9-9.4-33.7-13.6 c-70.1-27.2-136.2-62-198.2-104.6C76.1,12.6,31,61.8,23.5,68.9z M331.4,144.6c-31.2-4.3-38.9,46.2-37.5,67 c1.1,17.9,6.4,19,23.8,25.4c4.9,1.8,10.5,2.7,13.2-4.1c5.9-15,17.5-17.5,16.1-37.3c-0.8-11.8,1.8-21.8,12.6-28.4 c3.6-2.2,4.2-5.9,2.6-9.7c-1.9-4.3-5.9-5.3-8.8-1.7c-6.6,8.2-9.3,14.6-13.1,24.1c-0.6,1.4-2.1,2.4-3.2,3.6c-2.1-3.7-2-7.5,0.2-11.4 c2.9-8.9,8.3-16.2,15.3-22.2c-3.5-6-9.4-7.8-14.3-4.3c-7.7,5.4-13.6,12.2-15.3,21.9c-0.3,1.6-1.9,3-2.9,4.5 c-0.6-1.8-1.9-3.7-1.7-5.4C319.6,157.8,324.4,151.1,331.4,144.6z M216.3,130.7c-0.2,0.4-0.4,0.9-0.6,1.3 c24.9,16.5,49.7,32.9,74.2,49.1c4.2-8.9,8.2-17.3,12.2-25.8C273.7,147.2,245,139,216.3,130.7z M342.1,239 c10.8,2.2,21.3,4.4,31.9,6.4c1.1,0.2,2.7-0.3,3.6-1c7.6-5.8,12.9-13.2,16.3-22.6c-6.8-2.3-13.3-4.6-21-7.2 c-1,6.1-1.6,11.7-3.8,17.5c-4.5-6.1-2-11.8-1-19.1c-5.2-1.8-10.8-3.7-15.7-5.4c-2.6,6-4.4,11.6-7.3,16.5 C342.1,228.9,341.8,233.7,342.1,239z M373.6,190.2c-11.4,0-13-0.9-20.9-9.2c-0.3,6.8-0.6,13.4-0.7,20c0,0.8,1.6,1.9,2.7,2.3 c4.1,1.4,35.1,15.1,37.4,10.2c3-6.3,5.9-12.6,8.4-19.1c0.4-1.1-1.1-3-1.7-4.5c-4.3,6.1-8,10.7-15,10.1 C377.8,199.5,375.1,195,373.6,190.2z M421.1,198.7c-3.3,8.2-6.5,15.9-9.6,23.7c13.7,6,18,4.1,22.1-9.4c2.4-7.6,1.6-9.1-5.7-11.8 C425.8,200.4,423.6,199.6,421.1,198.7z M368.7,163.8c-4,4.6-11.8,9.9-9.4,16.9c1.2,3.4,3.3,5.9,7.2,5.7 C377.3,185.7,378.7,167.1,368.7,163.8z M376.7,184.6c2.7,15.9,20.6,8.2,17-2.2C389.6,170.1,380.8,177.7,376.7,184.6z"></path><path d="M226.8,1.2c-1.2,2-1.8,3.2-2.5,4.3c-10.9,15.6-21.8,31.1-32.7,46.7c-0.8,1.1-1.4,2.4-2.5,3.1c-2.8,1.2-4,0.3-3.6-2.7 c0.1-0.7,0.8-1.4,1.3-2.1C192.7,42,213.4,1.5,222.7,0C223.9-0.2,225.2,0.7,226.8,1.2z"></path><path d="M199.4,67.9c-0.6-0.5-1.8-1-1.9-1.7c-0.6-4.8,17.7-12,19.8-13.1c0.8-0.4,2.2,0.5,3.3,0.8C218.4,60.5,205.7,65.6,199.4,67.9 z"></path><path d="M168.2,25.2c4.3,6.2,8.8,18,6.8,25.4c-6.7-3.9-10.1-18.1-8.2-25.4C167.2,25.2,167.7,25.2,168.2,25.2z"></path></g><path class="st1" d="M6.1,55.7c-20.3,42.7,40.6,85.1,71.2,100.2c66,28.6,132.8,47.3,205.3,42.7"></path></svg>