<svg xmlns='http://www.w3.org/2000/svg' x="0px" y="0px" width="100%" height="100%" viewBox="0 0 447.1 231.4" xml:space="preserve" class="pe-none" fill='#264653' stroke-width= '2px' stroke='#264653'  style="
    padding-right: 5px;
"><style type="text/css" >.st1{
	    fill: none;
    stroke: #264653;
    stroke-width: 10px;
}
</style><defs></defs><g><g><path d="M280,30.6c24.4-26.7-36.6-32-48.4-30.3c-23,3.3-45.2,13.7-64.3,26.6c-19.1,12.8-35.8,29-51.5,45.7 C99.3,90,84.9,115.4,62.2,125.4c-19.1,8.4-22.5-1.5-40-4.2c-31.8-5-23,11.4-12.8,27.9c12.9,20.7,14.3,41.6,20.6,64.4 c5.5,20.2,5.3,15.7,22.5,7.4c5.4-2.6,9.5-6,11.4-12.2c25.3,8.3,50.6,3.3,73.8-8.4c24.4-12.3,43.2-20.8,69-28.8 c20-6.2,30.1-19.7,12-37.8c-17.4-17.4-40.3-10.9-60-2.1c11.7-54.3,47.5-68.8,94.3-87.8c0.9-0.4,1.7-0.7,2.6-0.9l18.1-6.5 C276.2,33.9,278.2,32.5,280,30.6z M223.7,156.2c-3.1,12.2-21.8,10.8-31.3,12.2C195.7,155,227.2,142.6,223.7,156.2z M258.6,36.7 c0,0,0.1,0,0.1-0.1c-7.9,2.8-15.9,5.4-24,8.1c-2.3-6.4-3.1-12.1-8.7-16.2c-0.1,1.6-0.7,3.3-0.3,4.7c1.1,4,2.6,7.8,3.8,11.1 c-12.9,7-25.4,13.7-38.1,20.5c-0.9-3.8-3.1-5.8-6.6-6c-1.3,16.4-7,21.9-18.5,36.3c-1.5-1.4-3.2-3.2-5.2-4.5 c-0.9-0.5-2.5,0.2-3.8,0.4c8.2,24.3-2.7,54.7-33.2,58.8c-0.8,0.1-1.8,0-2.4,0.4c-1.1,0.7-2,1.7-3,2.6 c29.9,17.2,72.7-63.1,103.3-7.5c-19.2-2.6-25.6,6.6-34.2,21.3c-6.5,11-39.3,22.7-52,29.2c-15.2,7.8-35.9,15.5-53.5,11.9 c-5.2-1.1-10.8-1.3-15.5-3.5c-5.5-2.7-5.5-20.2-6.5-24.8c-3.1-13.8-8.3-27.4-15.2-39.7c-0.6-1.2-1.3-2.3-1.8-3.5 c-0.1-0.3,0-0.6,0-1.1c31.8-4.3,46.7-26.8,66.9-49.2c19.8-21.9,40.6-43.3,65.8-58.9c22.2-13.8,52.7-27.1,79.5-22.6 c19.7,3.3,35.2,20.6,9.8,30c2.6-0.5,5.3-1,7.4-2.6c-2.1,1.6-4.8,2-7.4,2.6c-2.2,0.8-4.3,1.6-6.5,2.4 C258.6,36.7,258.6,36.7,258.6,36.7z"></path><path d="M311,66.9c-3.8,9-7,18-11.2,26.4c-24.1,48.4-61.4,84.3-107.2,112c-1.2,0.8-3.2,0.4-4.8,0.5c1-1.6,1.7-3.8,3.2-4.7 c34.1-20.5,63.4-46.3,86.4-78.8c12.1-17.2,22.3-35.4,28.3-55.8c0.3-1.1,2.1-1.9,3.2-2.8C309.5,64.6,310.1,65.6,311,66.9z"></path><path d="M229.3,227.9c-2.1-0.5-2.6-1.8-1.8-3.8c1-1.1,2.4-1.8,3.6-2.6c45.4-29.2,82-66,102.6-117c0.6-1.4,2.3-2.2,3.5-3.3 c0.2,1.7,1,3.7,0.5,5.1c-12.5,32.5-32.7,59.6-57.8,83.3C264.6,204.2,247.7,217.3,229.3,227.9z"></path><path d="M356.9,94.9c-0.7-0.5-1.7-0.9-1.8-1.5c-0.2-0.8,0-2,0.5-2.6c0.7-0.8,1.9-1.3,2.9-1.8c17.7-8.6,35.3-17.2,53-25.8 c9.8-4.8,24.4-16.5,35.5-14.3c-4.4,6.8-16.8,10.5-23.7,13.8c-20.8,10.1-41.5,20.1-62.3,30.2C359.8,93.6,358.4,94.2,356.9,94.9z"></path><path d="M346.2,78.3c1.2-7,2.2-13,3.4-19c0.2-1,1.9-1.7,2.8-2.5c3.4,6.5,0.4,19.2-4.2,24.6C347.4,80.2,346.6,79,346.2,78.3z"></path><path d="M378.3,118.7c-0.4-0.1-20.5-5.9-18.4-9.6c0.4-0.7,2-1.4,2.8-1.1c1.6,0.6,18.2,4.5,17.6,8.8 C380.3,117.5,379,118.1,378.3,118.7z"></path><path d="M254.1,180.6c1.2,1.5,2.5,2.9,2.4,3c-2.2,2.5-4.5,4.8-6.8,7.1c-0.7-0.8-2.1-2-2-2.2C249.6,186,251.6,183.6,254.1,180.6z"></path><path d="M300.4,123.1c1.3,1.6,2.7,2.8,2.5,3.1c-1.6,2.5-3.4,4.9-5.2,7.3C293.8,130.5,294.7,127,300.4,123.1z"></path><path d="M268,173.4c-1.2-1.9-2.4-3.2-2.2-3.5c1.6-2.4,3.5-4.6,5.4-6.8c0.8,0.9,2.4,2.2,2.2,2.6C271.9,168,270.2,170.3,268,173.4z"></path><path d="M283.9,154.4c-1.1-2.4-2.3-3.9-2-4.4c1.3-2.1,3.1-3.9,4.7-5.8C290.1,147.5,289.2,150.9,283.9,154.4z"></path><path d="M312.9,104.3c1.3,1.9,2.6,3.2,2.4,3.5c-1.5,2.2-3.3,4.2-4.9,6.2c-0.7-0.8-2.1-1.9-2-2.2 C309.5,109.6,311,107.4,312.9,104.3z"></path><path d="M232.9,198.7c1.2,1.4,1.8,2.2,2.5,3c-2.1,1.7-4.1,3.4-6.3,4.9c-0.2,0.1-1.5-1.3-2.3-2 C228.7,202.8,230.6,200.9,232.9,198.7z"></path><path class="st1" d="M165,180.6c29.3,53.1,102.9,65.3,147.7,24.4c44.2-40.4,39.6-113.6-9.3-148.1c-33.5-20.7-67.4-8.7-67.4-8.7"></path></g></g></svg>