<?xml version="1.0" encoding="iso-8859-1"?>

<!DOCTYPE svg >
<svg fill="inherit" height="100%" width="100%" version="1.1" id="Capa_1" xmlns="http://www.w3.org/2000/svg" 
	 viewBox="0 0 296 296" xml:space="preserve">
<g>
	<path d="M148,0C66.393,0,0,66.393,0,148s66.393,148,148,148s148-66.393,148-148S229.607,0,148,0z M148,266
		c-65.065,0-118-52.935-118-118c0-25.468,8.208-50.862,24.67-72.118L220.117,241.33C200.214,256.745,175.174,266,148,266z
		 M241.33,220.117L75.883,54.67C95.786,39.255,120.825,30,148,30c65.065,0,118,52.935,118,118
		C266,173.469,257.792,198.861,241.33,220.117z"/>
	<path d="M148,239.215c11.371,0,22.254-2.087,32.293-5.889L62.674,115.706c-3.802,10.039-5.889,20.922-5.889,32.293
		C56.785,198.376,97.623,239.215,148,239.215z"/>
	<path d="M148,56.785c-11.371,0-22.254,2.087-32.293,5.889l117.619,117.62c3.802-10.039,5.889-20.922,5.889-32.293
		C239.215,97.623,198.377,56.785,148,56.785z"/>
</g>
</svg>