<svg id="visual" viewBox="0 0 100 100" width="100" height="100" xmlns="http://www.w3.org/2000/svg" xmlns:xlink="http://www.w3.org/1999/xlink" version="1.1"><rect x="0" y="0" width="100" height="100" fill="#e76f51"></rect><defs><linearGradient id="grad1_0" x1="0%" y1="0%" x2="100%" y2="100%"><stop offset="30%" stop-color="#f4a361" stop-opacity="1"></stop><stop offset="70%" stop-color="#f4a361" stop-opacity="1"></stop></linearGradient></defs><defs><linearGradient id="grad1_1" x1="0%" y1="0%" x2="100%" y2="100%"><stop offset="30%" stop-color="#f4a361" stop-opacity="1"></stop><stop offset="70%" stop-color="#f0925a" stop-opacity="1"></stop></linearGradient></defs><defs><linearGradient id="grad1_2" x1="0%" y1="0%" x2="100%" y2="100%"><stop offset="30%" stop-color="#ec8154" stop-opacity="1"></stop><stop offset="70%" stop-color="#f0925a" stop-opacity="1"></stop></linearGradient></defs><defs><linearGradient id="grad1_3" x1="0%" y1="0%" x2="100%" y2="100%"><stop offset="30%" stop-color="#ec8154" stop-opacity="1"></stop><stop offset="70%" stop-color="#e76f51" stop-opacity="1"></stop></linearGradient></defs><defs><linearGradient id="grad2_0" x1="0%" y1="0%" x2="100%" y2="100%"><stop offset="30%" stop-color="#f4a361" stop-opacity="1"></stop><stop offset="70%" stop-color="#f4a361" stop-opacity="1"></stop></linearGradient></defs><defs><linearGradient id="grad2_1" x1="0%" y1="0%" x2="100%" y2="100%"><stop offset="30%" stop-color="#f0925a" stop-opacity="1"></stop><stop offset="70%" stop-color="#f4a361" stop-opacity="1"></stop></linearGradient></defs><defs><linearGradient id="grad2_2" x1="0%" y1="0%" x2="100%" y2="100%"><stop offset="30%" stop-color="#f0925a" stop-opacity="1"></stop><stop offset="70%" stop-color="#ec8154" stop-opacity="1"></stop></linearGradient></defs><defs><linearGradient id="grad2_3" x1="0%" y1="0%" x2="100%" y2="100%"><stop offset="30%" stop-color="#e76f51" stop-opacity="1"></stop><stop offset="70%" stop-color="#ec8154" stop-opacity="1"></stop></linearGradient></defs><g transform="translate(100, 0)"><path d="M0 70.7C-7.5 69.4 -15.1 68.2 -21 64.7C-26.9 61.2 -31.2 55.5 -37.6 51.8C-44 48.1 -52.4 46.5 -57.2 41.6C-62 36.7 -63 28.5 -64.7 21C-66.3 13.5 -68.5 6.8 -70.7 0L0 0Z" fill="#ea7852"></path><path d="M0 53C-5.7 52.1 -11.3 51.1 -15.8 48.5C-20.2 45.9 -23.4 41.6 -28.2 38.8C-33 36.1 -39.3 34.8 -42.9 31.2C-46.5 27.5 -47.3 21.4 -48.5 15.8C-49.7 10.2 -51.4 5.1 -53 0L0 0Z" fill="#ee8957"></path><path d="M0 35.4C-3.8 34.7 -7.5 34.1 -10.5 32.3C-13.5 30.6 -15.6 27.7 -18.8 25.9C-22 24 -26.2 23.2 -28.6 20.8C-31 18.3 -31.5 14.2 -32.3 10.5C-33.2 6.8 -34.3 3.4 -35.4 0L0 0Z" fill="#f29b5d"></path><path d="M0 17.7C-1.9 17.4 -3.8 17 -5.3 16.2C-6.7 15.3 -7.8 13.9 -9.4 12.9C-11 12 -13.1 11.6 -14.3 10.4C-15.5 9.2 -15.8 7.1 -16.2 5.3C-16.6 3.4 -17.1 1.7 -17.7 0L0 0Z" fill="#f4a361"></path></g><g transform="translate(0, 100)"><path d="M0 -70.7C7.2 -68.6 14.3 -66.5 20.7 -63.7C27.1 -61 32.7 -57.6 39.4 -54.2C46.1 -50.8 53.9 -47.5 57.2 -41.6C60.5 -35.6 59.4 -27.1 60.9 -19.8C62.4 -12.4 66.5 -6.2 70.7 0L0 0Z" fill="#ea7852"></path><path d="M0 -53C5.4 -51.4 10.7 -49.9 15.5 -47.8C20.3 -45.7 24.5 -43.2 29.5 -40.7C34.6 -38.1 40.4 -35.6 42.9 -31.2C45.4 -26.7 44.5 -20.4 45.7 -14.8C46.8 -9.3 49.9 -4.7 53 0L0 0Z" fill="#ee8957"></path><path d="M0 -35.4C3.6 -34.3 7.2 -33.2 10.4 -31.9C13.5 -30.5 16.3 -28.8 19.7 -27.1C23 -25.4 26.9 -23.7 28.6 -20.8C30.3 -17.8 29.7 -13.6 30.4 -9.9C31.2 -6.2 33.3 -3.1 35.4 0L0 0Z" fill="#f29b5d"></path><path d="M0 -17.7C1.8 -17.1 3.6 -16.6 5.2 -15.9C6.8 -15.2 8.2 -14.4 9.8 -13.6C11.5 -12.7 13.5 -11.9 14.3 -10.4C15.1 -8.9 14.8 -6.8 15.2 -4.9C15.6 -3.1 16.6 -1.6 17.7 0L0 0Z" fill="#f4a361"></path></g></svg>