<!-- Generator: Adobe Illustrator 23.0.5, SVG Export Plug-In  -->
<svg version="1.1" x="0px" y="0px"   height="100%" width="100%"  stroke="#264653" viewBox="0 0 16.4 19.4" style="enable-background:new 0 0 16.4 19.4;" xml:space="preserve">
<defs>
</defs>
<path d="M2.4,19.3c0.1,0,0.2,0.1,0.3,0.1c0.1-0.1,0.4-0.2,0.4-0.3c0.3-2.2,0.5-4.3-0.5-6.5c-0.7-1.5-1.3-3.2-1.7-4.8
	c-0.6-3,0.7-5.4,3.4-6.5c2.3-0.9,4.6-0.8,6.9,0.2c2.8,1.2,3.7,3.1,3.1,6.2c-0.2,0.9,0.1,2,0.3,3c0.1,0.6,0.7,1,1,1.4
	c-0.5,1.1-1.1,2-1.3,2.9c-0.6,2.3-0.5,3-3.4,2.4c-0.7-0.1-1.3-0.4-1.9-0.6c-0.3-0.1-0.7-0.2-0.8-0.3c0.1,1.1,0.2,2,0.2,2.9
	c0.1,0,0.2,0,0.4,0.1c0.1-0.6,0.3-1.1,0.4-1.7c1.1,0.2,2.1,0.4,3.1,0.5c1.2,0.1,2-0.4,2.4-1.7c0.3-1.2,0.7-2.5,1.4-3.4
	c0.5-0.8,0.6-1.2,0-1.8C14.9,10.2,14.6,9,15,7.4c0.7-2.6-0.3-4.8-2.7-6.2c-2.1-1.2-4.4-1.5-6.8-1C1.6,1-0.6,4,0.1,7.8
	c0.3,1.6,0.9,3.2,1.6,4.7c0.7,1.6,1,3.1,0.8,4.8C2.4,18,2.4,18.7,2.4,19.3z"/>
</svg>
