<!-- Generator: Adobe Illustrator 23.0.5, SVG Export Plug-In  -->
<svg version="1.1" x="0px" y="0px" height="100%" width="100%"  stroke="#264653" fill="transparent" stroke-width="0.7px" viewBox="0 0 16.5 8.2"  xml:space="preserve">

<defs>
</defs>
<path class="st0" d="M0,2c0.1-0.3,0.2-0.7,0.4-0.8c0.9-0.4,1.9-0.9,2.9-1.2c1.3-0.3,2.4,0.1,3.1,1.2C6.7,1.8,7,2.4,7.3,3
	c0.7,1,1.3,2.1,2,3.1c0.8,1.1,1.9,1.6,3.3,1.2c1.5-0.5,2.6-1.4,3-3c0.3-1.1-0.3-1.9-1.7-2.4c0,0.7,0.2,1.5,0,2.1
	c-0.3,1-1.7,1.5-2.6,1.3c-1.2-0.3-1.5-1.3-1.5-2.3c-0.1-1.1,0.6-1.8,1.6-2.1c1.5-0.4,2.9-0.1,4,0.9c1,0.8,1.2,1.8,0.8,3
	c-0.6,1.5-1.6,2.6-3.2,3.2c-1.4,0.6-2.8,0.4-3.8-0.8C8.3,6,7.5,4.8,6.7,3.5C5,0.5,4.2,0.2,1.1,1.8C0.8,1.9,0.6,2,0.3,2.2
	C0.2,2.1,0.1,2.1,0,2z M13.1,1.5c-0.5,0.1-1.1,0.1-1.6,0.2c-0.9,0.3-1,1-0.7,1.8c0.3,0.8,0.9,1.1,1.7,0.8c0.7-0.3,1.4-0.7,0.7-1.7
	C13,2.3,13.1,1.9,13.1,1.5z"/>
</svg>
