<svg x="0px" y="0px"  viewBox="0 0 246.1 384" xml:space="preserve" fill="#264653"><defs></defs><g><g><path class="st0" d="M204.1,128.7c0.5,12.2-2.6,22.2-11.4,29.7c-3.6,3-8,5-12,7.5c-4.3,2.7-6.4,6.4-3.8,11.4 c2.4,4.7,6.5,6.3,11.3,4.1c4.5-2.1,9-4.4,12.9-7.4c15.7-11.6,24.2-34.8,19.5-51.8c-1.4-5.2-4.7-7.6-9.9-6.9c-5.1,0.7-7.1,4.2-7,9 C203.7,126.1,204,127.9,204.1,128.7z M201.3,119.7c-2.4-7.2-4.6-15.5-7.9-23.5c-2-4.7-6.7-6.1-11.4-3.6c-4.6,2.4-6.3,6.6-3.8,11.4 c5.4,10.4,5.6,21,1.6,31.9c-2.2,5.8-0.2,10.1,5.3,12c5.4,1.9,9.4-1.1,11-6.2C198.1,135,199.3,128.2,201.3,119.7z"></path><path d="M70.6,384C49.1,362.5,27.5,341,6,319.4c-8.5-8.5-8.1-13.4,2.2-19.1c23.4-13,38.9-33.1,50.6-56.6 c8.8-17.6,16.9-35.6,26.7-52.7c6.6-11.6,14.8-22.6,23.9-32.4c10-10.8,14.4-23,15.3-37.1c0.2-3.7,0.1-7.5,0.1-11.2 c0.1-12.5,8.7-17.9,20.2-12.8c15.8,7.1,25.6,28.2,20.4,47c-2.7,10-7.9,19.3-11.9,28.9c-1.5,3.6-3.1,7.1-4,9.4 c17.6,1.6,35.2,1.8,52.1,5.1c10.3,2,20.3,7.9,29.5,13.6c8.1,5,12.1,13.7,14.2,23c3.1,13.4-3.3,23.9-16.9,26.8 c-6.8,1.4-7.2,4.6-4.8,9.9c4.9,11.1,3.9,21.7-2,32.3c-1.5,2.6-2.4,5.9-2.4,9c-0.3,18.1-8.6,31.3-26,35.7 c-24.4,6.2-49.2,10.5-73.8,15.6c-4.6,1-9.3,1.9-13.9,2.8c-10.1,2-16.8,8.1-21.2,17.3c-1.7,3.5-4.1,6.7-6.2,10 C75.6,384,73.1,384,70.6,384z M143.2,117.9c-0.7,2.9-1.4,5-1.5,7.1c-1.1,19.6-8.6,36.1-23.5,49c-1.1,1-1.9,2.3-2.8,3.5 c-15.7,18.8-24.9,41.2-35.4,62.9c-10.4,21.4-21.9,42.1-40,58.1c-5.2,4.6-10.6,8.8-15,12.4C41,327,56.9,343,72.9,359.1 c6.7-9.6,16.1-16.5,28.4-18.9c7.3-1.4,14.6-2.9,21.9-4.3c13.3-2.4,26.7-4.8,39.5-7.1c-3.9-3.5-9.3-6.1-10.8-10.1 c-4.5-11.3-8.4-22.9-10.5-34.8c-1.1-6.1-1.7-9.8-8-12.8c-10.3-4.8-15.3-16.8-12.8-26.2c2.7-10.4,11.6-18.3,24.6-17.1 c3.5,0.3,7.1,0.6,10.5-0.1c12.9-2.5,28.5,1.3,35.7-15c0.4-0.8,1.4-1.5,2.1-2.1c3.6-3,8-3.5,10.6,0.2c1.9,2.7,2.9,7.7,1.6,10.4 c-5.3,11.1-5.5,11.3,6.9,13.5c2.7,0.5,5.5,0.6,8.2,0.4c7.5-0.5,9.4-3.2,6.8-10.1c-3.5-9.4-11.2-14.5-20.1-17.7 c-21.2-7.6-42.8-8.5-64.6-2.7c-9.1,2.4-14.2-1.2-12.7-10.3c1.6-9.2,4.3-18.2,7.5-27c2.6-7.4,6.9-14.3,9.8-21.7 C151,136.2,150.7,126.9,143.2,117.9z M205.9,253.2c-6.7-4.3-11.9-7.8-17.3-11.2c-1.1-0.7-2.6-1.3-3.9-1.2 c-13.8,1.2-27.7,2.4-41.4,4c-2.1,0.2-4.8,1.9-5.6,3.7c-0.7,1.4,0.6,5.1,1.9,5.7c5.1,2.2,10.5,4.8,15.8,4.8 c9.1,0,18.2-1.7,27.3-2.8C190.2,255.3,197.7,254.3,205.9,253.2z M207.8,270.5c-13.9,1.4-27.3,2.9-40.7,4.1 c-8.6,0.8-11.1,5.2-7,12.3c13.4-0.6,26.5-1.3,39.7-1.9C208.9,284.7,211.6,280,207.8,270.5z M202.5,303.2 c-11.5,0-22.2-0.2-32.9,0.2c-1.4,0-2.7,2.7-4,4.1c1.2,1,2.3,2.9,3.5,2.9c10.4,0.2,20.7,0.1,31.6,0.1 C201,308.9,201.6,306.6,202.5,303.2z"></path><path d="M163.6,0c4.7,2.1,9.7,3.7,14.1,6.4c16.9,10.2,24.4,30.8,18.3,49.3c-6,18.4-25.1,31.3-43.8,29.5c-20.6-2-36.3-17.3-39.2-38 c-2.5-18.3,9.2-37.3,27.3-44.3c2.3-0.9,4.5-1.9,6.7-2.8C152.6,0,158.1,0,163.6,0z M155.3,67.3c14.1,0,25.4-11,25.4-24.7 c0-13.6-11.9-25.5-25.3-25.3c-13.5,0.2-24.5,11.3-24.6,24.9C130.6,56.8,140.8,67.3,155.3,67.3z"></path><path d="M204.1,128.7c-0.1-0.8-0.4-2.5-0.4-4.3c-0.1-4.8,1.9-8.3,7-9c5.2-0.7,8.5,1.7,9.9,6.9c4.7,17-3.8,40.1-19.5,51.8 c-4,2.9-8.4,5.3-12.9,7.4c-4.8,2.2-8.9,0.6-11.3-4.1c-2.6-5-0.5-8.6,3.8-11.4c4-2.5,8.4-4.5,12-7.5 C201.5,150.9,204.6,140.9,204.1,128.7z"></path><path d="M201.3,119.7c-2,8.5-3.2,15.4-5.2,22c-1.6,5.1-5.6,8.1-11,6.2c-5.5-1.9-7.4-6.2-5.3-12c4-10.8,3.8-21.4-1.6-31.9 c-2.5-4.8-0.8-9,3.8-11.4c4.7-2.5,9.4-1.1,11.4,3.6C196.7,104.1,198.9,112.5,201.3,119.7z"></path></g></g></svg>