<!-- Generator: Adobe Illustrator 23.0.5, SVG Export Plug-In  -->
<svg version="1.1" xmlns="http://www.w3.org/2000/svg" xmlns:xlink="http://www.w3.org/1999/xlink" x="0px" y="0px" width="32.15px"
	 height="32px" viewBox="0 0 32.15 32" style="enable-background:new 0 0 32.15 32;" xml:space="preserve">
<style type="text/css">
	.st0{fill:none;}
	.st1{fill:#264653;}
	.st2{fill:#E76F51;stroke:#E76F51;stroke-width:0.25;stroke-miterlimit:10;}
</style>
<defs>
</defs>
<circle class="st0" cx="16.02" cy="16" r="16"/>
<g>
	<path class="st1" d="M9.13,21.84H6.43v-4.43H2.69v4.43H0V10.95h2.69v4.28h3.74v-4.28h2.69V21.84z"/>
	<path class="st1" d="M19,21.69C16.78,21.9,14.93,22,13.47,22c-0.98,0-1.69-0.24-2.15-0.72c-0.46-0.48-0.69-1.22-0.69-2.24v-4.98
		c0-1.09,0.24-1.88,0.71-2.37c0.47-0.49,1.23-0.74,2.28-0.74H19v2.18h-4.79c-0.6,0-0.9,0.31-0.9,0.93v4.98
		c0,0.24,0.07,0.43,0.2,0.57c0.13,0.14,0.31,0.21,0.52,0.21c0.21,0,0.44,0,0.69-0.01c0.25-0.01,0.51-0.01,0.78-0.02
		c0.27-0.01,0.54-0.02,0.82-0.03c0.27-0.01,0.63-0.03,1.06-0.06c0.43-0.03,0.97-0.07,1.62-0.11V21.69z"/>
</g>
<g>
	<path class="st2" d="M19.99,20.34h1.93v1.61h-1.93V20.34z"/>
	<path class="st2" d="M25.15,16.47v5.48h-1.88v-4.03h-0.81v-1.45H25.15z M23.27,14.32h1.88v1.5h-1.88V14.32z"/>
	<path class="st2" d="M32.02,20.34c0,0.54-0.15,0.96-0.46,1.26c-0.3,0.3-0.73,0.46-1.26,0.46h-2.47c-0.54,0-0.96-0.15-1.26-0.46
		c-0.3-0.3-0.46-0.73-0.46-1.26v-2.47c0-0.54,0.15-0.96,0.46-1.26c0.3-0.3,0.73-0.46,1.26-0.46h2.47c0.54,0,0.96,0.15,1.26,0.46
		c0.3,0.3,0.46,0.73,0.46,1.26V20.34z M30.14,18.03c0-0.29-0.14-0.43-0.43-0.43h-1.29c-0.29,0-0.43,0.14-0.43,0.43v2.15
		c0,0.29,0.14,0.43,0.43,0.43h1.29c0.29,0,0.43-0.14,0.43-0.43V18.03z"/>
</g>
</svg>
